<svg width="512.001" height="512.001" xmlns="http://www.w3.org/2000/svg">
 <g>
  <title>background</title>
  <rect x="-1" y="-1" width="514.001" height="514.001" id="canvas_background" fill="none"/>
 </g>

 <g>
  <title>Layer 1</title>
  <path d="m452.729,499.439l-393.458,0c-32.735,0 -59.271,-26.537 -59.271,-59.271l0,-368.334c0,-32.734 26.536,-59.271 59.271,-59.271l393.459,0c32.734,0 59.271,26.536 59.271,59.271l0,368.334c-0.001,32.734 -26.537,59.271 -59.272,59.271z" fill="#76B7EB" id="svg_1"/>
  <path d="m0,286.48l0,153.688c0,32.734 26.536,59.271 59.271,59.271l393.459,0c32.734,0 59.271,-26.536 59.271,-59.271l0,-153.688l-512.001,0z" fill="#B3E7FF" id="svg_2"/>
  <path d="m328.116,141.989l-144.232,0c-8.229,0 -14.901,-6.671 -14.901,-14.901l0,-56.74c0,-8.229 6.671,-14.901 14.901,-14.901l144.231,0c8.229,0 14.901,6.671 14.901,14.901l0,56.74c0,8.23 -6.671,14.901 -14.9,14.901z" fill="#FFFFFF" id="svg_3"/>
  <path d="m328.116,149.489l-144.232,0c-12.352,0 -22.4,-10.049 -22.4,-22.4l0,-56.739c0,-12.353 10.049,-22.401 22.4,-22.401l144.231,0c12.352,0 22.4,10.049 22.4,22.401l0,56.739c0.001,12.35 -10.048,22.4 -22.399,22.4zm-144.232,-86.541c-4.081,0 -7.4,3.32 -7.4,7.401l0,56.739c0,4.081 3.32,7.4 7.4,7.4l144.231,0c4.081,0 7.4,-3.319 7.4,-7.4l0,-56.738c0,-4.081 -3.32,-7.401 -7.4,-7.401l-144.231,-0.001l0,0z" fill="#B3E7FF" id="svg_6"/>
  <path d="m130.804,437.549c-34.233,-35.173 -69.327,-96.673 -57.036,-188.748c4.219,-31.604 27.22,-60.798 60.798,-60.798s56.434,24.632 60.798,60.798c3.457,28.654 -3.847,47.86 -9.755,72.686c-8.161,34.29 12.797,57.39 12.797,88.06c0,21.871 -17.73,39.6 -39.6,39.6c-10.936,0.001 -20.836,-4.432 -28.002,-11.598z" fill="#38648C" id="svg_7"/>
  <path d="m158.805,434.148c-6.541,0 -12.691,-2.535 -17.33,-7.141c-18.843,-19.383 -33.163,-42.153 -42.559,-67.676c-12.062,-32.764 -15.521,-69.284 -10.279,-108.546c3.169,-23.744 19.964,-47.782 45.929,-47.782c25.149,0 42.31,17.792 45.906,47.595c2.505,20.762 -1.327,35.595 -6.178,54.374c-1.08,4.179 -2.196,8.499 -3.277,13.042c-5.722,24.042 0.396,43.305 5.793,60.301c3.392,10.682 6.596,20.771 6.596,31.233c-0.001,13.564 -11.036,24.6 -24.601,24.6z" opacity="0.1" id="svg_8"/>
  <path d="m381.196,437.549c34.233,-35.173 69.327,-96.673 57.035,-188.748c-4.219,-31.604 -27.22,-60.798 -60.798,-60.798s-56.433,24.632 -60.797,60.798c-3.458,28.654 3.846,47.86 9.755,72.686c8.161,34.29 -12.796,57.39 -12.796,88.06c0,21.871 17.729,39.6 39.6,39.6c10.935,0.001 20.835,-4.432 28.001,-11.598z" fill="#38648C" id="svg_9"/>
  <path d="m353.195,434.148c-13.564,0 -24.6,-11.035 -24.6,-24.6c0,-10.463 3.204,-20.552 6.596,-31.233c5.398,-16.996 11.515,-36.259 5.793,-60.3c-1.082,-4.544 -2.198,-8.864 -3.277,-13.043c-4.852,-18.779 -8.684,-33.612 -6.178,-54.374c3.596,-29.803 20.757,-47.595 45.906,-47.595c25.965,0 42.76,24.038 45.929,47.782c5.241,39.262 1.783,75.782 -10.279,108.546c-9.396,25.522 -23.716,48.293 -42.559,67.676c-4.64,4.605 -10.791,7.141 -17.331,7.141z" opacity="0.1" id="svg_10"/>
  <g id="svg_11">
   <path d="m0,414.926l0,25.242c0,32.734 26.536,59.271 59.271,59.271l25.242,0l0,0c-0.001,-46.675 -37.838,-84.513 -84.513,-84.513l0,0z" fill="#38648C" id="svg_12"/>
   <path d="m512,414.926l0,25.242c0,32.734 -26.536,59.271 -59.271,59.271l-25.242,0l0,0c0.001,-46.675 37.838,-84.513 84.513,-84.513l0,0z" fill="#38648C" id="svg_13"/>
  </g>
  <g id="svg_14">
   <circle cx="114.31" cy="72.681" r="15.399" fill="#B3E7FF" id="svg_15"/>
   <circle cx="56.856" cy="72.681" r="15.399" fill="#B3E7FF" id="svg_16"/>
   <circle cx="114.31" cy="125.331" r="15.399" fill="#B3E7FF" id="svg_17"/>
   <circle cx="56.856" cy="125.331" r="15.399" fill="#B3E7FF" id="svg_18"/>
   <circle cx="397.69" cy="72.681" r="15.399" fill="#B3E7FF" id="svg_19"/>
   <circle cx="455.14" cy="72.681" r="15.399" fill="#B3E7FF" id="svg_20"/>
   <circle cx="397.69" cy="125.331" r="15.399" fill="#B3E7FF" id="svg_21"/>
   <circle cx="455.14" cy="125.331" r="15.399" fill="#B3E7FF" id="svg_22"/>
  </g>
  <path d="m305.633,499.439c-181.596,-101.705 -231.294,-386.975 -177.841,-486.876l-68.521,0c-32.735,0 -59.271,26.537 -59.271,59.271l0,368.334c0,32.734 26.536,59.271 59.271,59.271l246.362,0l0,0z" opacity="0.1" id="svg_23"/>
  <g id="svg_24"/>
  <g id="svg_25"/>
  <g id="svg_26"/>
  <g id="svg_27"/>
  <g id="svg_28"/>
  <g id="svg_29"/>
  <g id="svg_30"/>
  <g id="svg_31"/>
  <g id="svg_32"/>
  <g id="svg_33"/>
  <g id="svg_34"/>
  <g id="svg_35"/>
  <g id="svg_36"/>
  <g id="svg_37"/>
  <g id="svg_38"/>
 </g>
</svg>